<?xml version="1.0" standalone="no"?><!DOCTYPE svg PUBLIC "-//W3C//DTD SVG 1.1//EN" "http://www.w3.org/Graphics/SVG/1.1/DTD/svg11.dtd"><svg t="1566990861351" class="icon" viewBox="0 0 1024 1024" version="1.1" xmlns="http://www.w3.org/2000/svg" p-id="3085" xmlns:xlink="http://www.w3.org/1999/xlink" width="32" height="32"><defs><style type="text/css"></style></defs><path d="M737.037313 498.184343c12.81077 4.670369 25.621541 10.488889 38.45994 17.482163 12.811794 6.992251 24.475438 15.46011 34.964326 25.348318 10.488889 9.915837 18.930141 21.852704 25.348318 35.83823 6.391571 13.985526 9.614985 29.718859 9.614985 47.201022 0 29.145807-9.914814 59.165518-29.719882 90.032526-19.830651 30.893614-47.201022 58.864666-82.165348 83.914178-34.964326 25.075095-77.522608 45.753043-127.619586 62.060451-50.123584 16.335037-105.493659 24.475438-166.079526 24.475438-46.62797 0-92.381014-5.51869-137.233548-16.60826-44.87914-11.062963-85.08791-27.096125-120.626311-48.074925-35.565007-20.9788-64.110133-46.600341-85.661985-76.920904-21.579481-30.293957-32.341592-64.684208-32.341592-103.144148 0-19.805068 2.895957-40.20877 8.741082-61.187571 5.818519-20.977777 14.559601-42.530652 26.223245-64.683185 11.636015-22.125927 25.622564-44.278459 41.956577-66.432015 16.308431-22.125927 34.964326-44.278459 55.943127-66.430992 29.118178-29.119201 58.263985-53.894468 87.409792-74.299193 29.118178-20.377096 57.090253-35.83823 83.913155-46.327118 26.797319-10.488889 50.971905-15.733333 72.550363-15.733333 21.551852 0 38.160111 6.4192 49.823755 19.22997 5.818519 5.845125 10.18906 12.537548 13.111622 20.103874 2.894933 7.593955 4.643764 15.733333 5.244444 24.474414 0.574075 8.741082 0.273223 18.656919-0.873903 29.719882-1.173732 11.089569-3.495614 21.851681-6.992251 32.341592-2.349511 5.845125-2.349511 9.915837 0 12.236696 2.321882 2.349511 4.943592 3.223415 7.867178 2.622734 2.895957-0.574075 7.266497-2.022053 13.111622-4.370541 23.300682-9.315156 45.453215-16.60826 66.430992-21.852704 20.9788-5.244444 40.20877-7.867178 57.690934-7.867178s32.614815 2.62171 45.454238 7.867178c12.81077 5.244444 22.726607 13.111622 29.718859 23.600511 4.643764 5.845125 7.867178 12.237719 9.614985 19.22997 1.747807 6.992251 2.62171 14.286378 2.62171 21.852704 0 7.593955-1.173732 15.733333-3.496637 24.474414-2.349511 8.741082-5.244444 17.781992-8.741082 27.097148-1.173732 3.496637-1.747807 6.719028-1.747807 9.614985 0 2.922563 0.873903 4.971222 2.62171 6.118348 1.747807 1.174756 3.76986 2.348488 6.118348 3.496637C730.61709 495.862461 733.540675 497.037217 737.037313 498.184343zM439.841563 830.343395c37.286208-3.495614 71.676459-11.636015 103.144148-24.474414 31.467689-12.811794 58.564837-28.844955 81.291444-48.074925 22.726607-19.230993 40.20877-40.483017 52.446489-63.809281 12.236696-23.300682 17.181311-47.202045 14.859429-71.676459-2.349511-25.622564-11.663644-48.649-27.972075-69.053726-16.335037-20.37812-37.586037-37.586037-63.809281-51.571562-26.222221-13.985526-55.942103-23.874757-89.157599-29.719882-33.216519-5.818519-68.480674-6.992251-105.766882-3.496637-37.312814 3.496637-71.676459 11.663644-103.144148 24.474414-31.467689 12.8384-58.564837 28.571732-81.291444 47.201022-22.726607 18.655895-39.935548 39.935548-51.571562 63.809281-11.663644 23.901363-16.335037 48.074925-13.985526 72.550363 2.321882 24.474414 11.362792 47.202045 27.097148 68.179822 15.733333 20.9788 36.712133 38.460963 62.935378 52.446489s55.942103 23.90034 89.158622 29.719882C367.291201 832.692906 402.52875 833.840032 439.841563 830.343395zM455.57592 545.385365c17.482163 4.671393 32.915667 12.237719 46.328142 22.726607 13.383822 10.488889 23.873734 23.026436 31.467689 37.586037 7.566326 14.586207 11.636015 30.320563 12.236696 47.201022 0.574075 16.908088-2.62171 34.089399-9.614985 51.571562-8.167007 17.482163-19.230993 32.642444-33.216519 45.453215-13.985526 12.8384-29.718859 23.027459-47.201022 30.593785-17.48114 7.593955-35.83823 12.236696-55.0682 13.985526-19.22997 1.747807-38.187741-0.873903-56.81703-7.867178-17.482163-5.819542-32.341592-14.259772-44.579311-25.349341-12.236696-11.062963-21.579481-23.873734-27.971052-38.45994-6.4192-14.559601-9.614985-30.293957-9.614985-47.202045 0-16.880459 4.070712-33.489742 12.237719-49.822732 8.140401-15.133675 18.629289-28.844955 31.467689-41.082674 12.811794-12.237719 27.370371-22.125927 43.705408-29.719882 16.307408-7.566326 33.488719-12.236696 51.571562-13.985526C418.562934 539.267017 436.919001 540.742625 455.57592 545.385365zM401.381623 711.465914c3.496637-5.818519 5.517667-11.936867 6.118348-18.356067 0.574075-6.391571 0.273223-12.237719-0.873903-17.482163-1.173732-5.244444-3.796466-10.188037-7.867178-14.859429-4.097318-4.64274-9.04091-8.139378-14.859429-10.488889-5.845125-2.321882-11.964496-3.496637-18.356067-3.496637-6.4192 0-12.537548 0.873903-18.356067 2.62171-5.845125 1.74883-11.362792 4.671393-16.60826 8.741082-5.244444 4.097318-9.614985 9.041934-13.110599 14.859429-3.496637 5.846148-5.846148 11.964496-6.993275 18.356067-1.173732 6.418176-0.873903 12.237719 0.873903 17.482163s4.370541 10.215666 7.867178 14.859429c3.496637 4.670369 8.140401 8.165983 13.985526 10.488889 5.818519 2.349511 11.936867 3.796466 18.356067 4.370541 6.391571 0.601704 12.510942-0.273223 18.356067-2.62171 5.818519-2.321882 11.637038-5.517667 17.482163-9.614985C393.213593 722.255655 397.884986 717.311039 401.381623 711.465914zM448.582645 648.530536c1.147126-2.322905 1.747807-4.643764 1.747807-6.993275 0-2.321882-0.299829-4.370541-0.873903-6.118348-0.600681-1.747807-1.474584-3.496637-2.622734-5.244444-1.173732-1.747807-2.922563-3.195785-5.244444-4.370541-2.348488 0-4.670369 0-6.992251 0-2.349511 0-4.670369 0.299829-6.992251 0.873903-2.349511 0.601704-4.671393 1.74883-6.992251 3.496637-2.349511 1.747807-4.097318 3.797489-5.244444 6.118348-1.173732 2.349511-1.747807 4.670369-1.747807 6.992251 0 2.349511 0.273223 4.370541 0.873903 6.118348 0.574075 1.74883 1.447978 3.496637 2.62171 5.245468 1.147126 1.747807 2.895957 3.222391 5.244444 4.370541 2.321882 1.173732 4.643764 1.747807 6.993275 1.747807 2.321882 0 4.643764-0.574075 6.992251-1.747807 2.321882-1.147126 4.643764-2.62171 6.992251-4.370541C445.660082 652.900054 447.407889 650.879024 448.582645 648.530536zM897.872395 220.219587c15.132652 16.334014 27.370371 34.089399 36.712133 53.319369 9.315156 19.22997 16.007579 39.334867 20.103874 60.312644 4.070712 20.9788 5.517667 41.956577 4.370541 62.935378-1.173732 20.977777-5.244444 41.382503-12.236696 61.186548-1.174756 4.670369-3.223415 8.741082-6.118348 12.237719-2.922563 3.496637-6.4192 6.4192-10.489912 8.741082-4.097318 2.349511-8.167007 3.496637-12.236696 3.496637-4.097318 0-8.467859-0.574075-13.111622-1.747807-4.670369-1.147126-8.741082-3.496637-12.236696-6.992251-3.496637-3.496637-6.118348-6.992251-7.867178-10.488889-1.747807-3.496637-2.922563-7.566326-3.496637-12.236696-0.600681-4.643764-0.299829-9.315156 0.873903-13.985526 4.643764-15.133675 7.266497-29.993105 7.867178-44.579311 0.574075-14.559601-0.600681-29.119201-3.495614-43.705408-2.922563-14.559601-7.593955-28.844955-13.985526-42.830481-6.4192-13.985526-14.859429-26.797319-25.349341-38.45994-10.488889-12.811794-22.152533-23.300682-34.963303-31.467689-12.839423-8.140401-26.223245-14.258749-40.20877-18.356067-13.986549-4.069689-28.271904-6.692423-42.831504-7.867178-14.586207-1.147126-28.844955 0-42.830481 3.496637-4.670369 1.174756-9.04091 1.174756-13.110599 0-4.097318-1.147126-8.167007-2.894933-12.237719-5.244444-4.097318-2.321882-7.293103-5.244444-9.614985-8.741082-2.349511-3.496637-4.098341-7.566326-5.245468-12.236696-1.173732-4.643764-1.173732-9.315156 0-13.985526 1.147126-4.643764 2.895957-9.014304 5.245468-13.110599 2.321882-4.070712 5.244444-7.266497 8.740058-9.614985 3.496637-2.321882 7.567349-4.069689 12.237719-5.244444 19.805068-4.643764 39.908942-6.391571 60.312644-5.244444 20.37812 1.173732 40.483017 4.670369 60.312644 10.488889 19.805068 5.845125 38.460963 14.586207 55.943127 26.223245C866.404706 188.178847 882.71109 202.737424 897.872395 220.219587zM794.728246 438.744579c-3.496637-1.147126-6.720052-2.894933-9.614985-5.244444-2.922563-2.321882-5.244444-5.244444-6.993275-8.741082-1.747807-3.496637-2.921539-7.266497-3.495614-11.362792-0.601704-4.069689-0.300852-8.44023 0.873903-13.111622 1.147126-4.643764 2.022053-9.315156 2.62171-13.985526 0.574075-4.643764 0.274246-9.614985-0.873903-14.859429-1.174756-5.244444-2.922563-10.18906-5.244444-14.859429-2.349511-4.643764-5.245468-8.741082-8.741082-12.237719-3.496637-4.643764-7.294127-8.140401-11.362792-10.488889-4.098341-2.321882-8.467859-4.370541-13.111622-6.118348-4.670369-1.747807-9.341762-2.62171-13.985526-2.62171-4.670369 0-9.341762 0.600681-13.985526 1.747807-4.670369 0-8.741082-0.273223-12.237719-0.873903-3.496637-0.574075-6.992251-2.022053-10.488889-4.370541-3.496637-2.321882-6.4192-4.944616-8.741082-7.867178-2.349511-2.894933-3.496637-6.692423-3.496637-11.362792-1.173732-3.496637-1.474584-7.265474-0.873903-11.362792 0.574075-4.069689 2.022053-7.867178 4.370541-11.362792 2.321882-3.496637 4.943592-6.391571 7.867178-8.741082 2.894933-2.321882 6.692423-3.496637 11.362792-3.496637 9.315156-2.321882 18.930141-3.196809 28.844955-2.62171 9.888208 0.600681 19.504216 2.348488 28.844955 5.244444 9.315156 2.922563 18.356067 7.293103 27.097148 13.111622 8.741082 5.845125 16.607236 12.8384 23.599488 20.977777 8.140401 8.167007 14.259772 16.908088 18.356067 26.223245 4.070712 9.341762 7.266497 18.956747 9.614985 28.844955 2.321882 9.915837 3.195785 20.103874 2.62171 30.593785-0.601704 10.488889-2.62171 20.404726-6.118348 29.718859-1.174756 3.496637-2.922563 6.992251-5.244444 10.488889-2.349511 3.496637-5.245468 6.118348-8.741082 7.867178-3.496637 1.747807-7.294127 2.62171-11.362792 2.62171C801.992697 440.493409 798.22386 439.919335 794.728246 438.744579z" p-id="3086"></path></svg>