<?xml version="1.0" standalone="no"?><!DOCTYPE svg PUBLIC "-//W3C//DTD SVG 1.1//EN" "http://www.w3.org/Graphics/SVG/1.1/DTD/svg11.dtd"><svg t="1566976673604" class="icon" viewBox="0 0 1024 1024" version="1.1" xmlns="http://www.w3.org/2000/svg" p-id="17481" xmlns:xlink="http://www.w3.org/1999/xlink" width="200" height="200"><defs><style type="text/css"></style></defs><path d="M581.347556 59.818667c-203.719111 0-368.839111 166.456889-368.839112 371.797333 0 205.368889 165.12 371.854222 368.839112 371.854222 203.690667 0 368.839111-166.456889 368.839111-371.854222 0.028444-205.312-165.12-371.797333-368.839111-371.797333z m0 629.248c-140.999111 0-255.345778-115.256889-255.345778-257.422223 0-142.136889 114.346667-257.393778 255.345778-257.393777 141.027556 0 255.374222 115.256889 255.374222 257.393777 0 142.165333-114.318222 257.422222-255.374222 257.422223zM210.744889 745.244444l-120.376889 121.344a57.628444 57.628444 0 0 0 0 80.896 56.604444 56.604444 0 0 0 80.241778 0l120.348444-121.344a57.628444 57.628444 0 0 0 0-80.896 56.490667 56.490667 0 0 0-80.213333 0z" p-id="17482" fill="#ffffff"></path></svg>